<?xml version="1.0" encoding="utf-8"?>
<!-- Generator: Adobe Illustrator 16.0.0, SVG Export Plug-In . SVG Version: 6.00 Build 0)  -->
<!DOCTYPE svg PUBLIC "-//W3C//DTD SVG 1.1//EN" "http://www.w3.org/Graphics/SVG/1.1/DTD/svg11.dtd">
<svg version="1.1" id="Capa_1" xmlns="http://www.w3.org/2000/svg" xmlns:xlink="http://www.w3.org/1999/xlink" x="0px" y="0px"
	 width="380.413px" height="93.814px" viewBox="0 0 380.413 93.814" style="enable-background:new 0 0 380.413 93.814;"
	 xml:space="preserve">
<path style="fill-rule:evenodd;clip-rule:evenodd;fill:#DADADA;" d="M56.897,22.72c-2.517,2.658-0.165,10.213,3.664,13.563
	c1.989-1.112,4.302-1.379,6.577-1.102c-1.193-0.38-2.344-0.897-3.416-1.501c-2.293-1.293-4.073-3.69-5.22-6.017
	C57.834,26.307,57.193,24.533,56.897,22.72L56.897,22.72z M10.071,41.592v-2.313c0.094-1.793,0.399-3.602,0.886-5.33
	c-0.224,4.488,0.771,8.9,3.306,12.051c0.773,0.96,1.678,1.796,2.701,2.483c0.858,0.576,1.739,1.111,2.641,1.589l-0.035,0.078
	l0.04,0.016c-0.482,1.189-0.931,2.449-1.295,3.734c-0.993-0.488-2.017-1.084-3.077-1.795C11.876,49.846,10.304,45.885,10.071,41.592
	L10.071,41.592z M73.53,37.363c0.537-0.557,0.925-1.23,1.134-2.002c-0.826,0.278-1.699,0.439-2.577,0.492
	c-0.71,0.043-1.423,0.021-2.132-0.06c0.926,0.289,1.817,0.653,2.646,1.069C72.914,37.019,73.223,37.185,73.53,37.363L73.53,37.363z
	 M17.417,59.409c-4.316,14.725,8.129,16.506,20.299,9.318l0.001,0.002l0.07-0.041c3.088,4.146,9.928,7.277,13.805,6.986
	c4.923-0.365,9.539-2.875,12.513-6.658c-2.76,1.887-6.048,3.096-9.573,3.357c-4.144,0.311-10.562-2.416-14.355-6.434l-0.148,0.088
	l-0.02-0.025c-1.835,0.98-3.736,1.799-5.669,2.41c-4.401,1.391-10.233,1.994-13.956-1.344
	C18.149,65.063,17.368,62.333,17.417,59.409L17.417,59.409z M69.899,62.762c2.074-0.514,3.7-1.955,4.726-3.848
	c-1.064,0.486-2.154,0.727-3.245,0.764l-0.033,0.141l-0.104-0.016C70.886,60.833,70.435,61.821,69.899,62.762z"/>
<g>
	<path style="fill:#FBC82C;" d="M107.9,49.434c1.17,0.46,2.056,1.05,2.655,1.77c0.6,0.72,0.99,1.53,1.17,2.43
		c0.18,0.9,0.27,1.791,0.27,2.67v0.72c-0.46,0.8-1.109,1.52-1.949,2.16c-0.721,0.54-1.695,1.03-2.926,1.47
		c-1.229,0.44-2.774,0.66-4.635,0.66c-1.38,0-2.59-0.19-3.63-0.569c-1.04-0.381-1.935-0.881-2.685-1.5
		c-0.75-0.62-1.37-1.325-1.86-2.116c-0.49-0.79-0.88-1.59-1.17-2.4s-0.49-1.595-0.6-2.355c-0.11-0.76-0.165-1.43-0.165-2.01
		c0-0.58,0.055-1.254,0.165-2.025c0.109-0.77,0.31-1.56,0.6-2.37c0.29-0.81,0.68-1.605,1.17-2.385s1.11-1.48,1.86-2.1
		c0.75-0.62,1.64-1.12,2.67-1.5c1.029-0.379,2.244-0.57,3.645-0.57c0.8,0,1.61,0.065,2.431,0.195c0.819,0.13,1.6,0.315,2.34,0.555
		c0.739,0.24,1.41,0.525,2.01,0.855s1.09,0.685,1.47,1.065c-0.14,0.38-0.34,0.73-0.6,1.05c-0.261,0.32-0.585,0.581-0.976,0.78
		c-0.39,0.2-0.84,0.325-1.35,0.375c-0.51,0.05-1.065-0.005-1.665-0.165c-0.7-0.2-1.346-0.36-1.935-0.48
		c-0.591-0.12-1.166-0.15-1.726-0.09c-0.82,0.1-1.495,0.365-2.024,0.795c-0.53,0.43-0.956,0.965-1.275,1.605
		c-0.32,0.64-0.545,1.345-0.675,2.115c-0.131,0.771-0.195,1.535-0.195,2.295c0,0.761,0.064,1.525,0.195,2.295
		c0.13,0.77,0.354,1.47,0.675,2.1c0.319,0.63,0.745,1.166,1.275,1.605c0.529,0.44,1.204,0.71,2.024,0.81
		c0.56,0.06,1.2,0.03,1.92-0.09c0.721-0.12,1.43-0.28,2.13-0.48v-1.11c0-0.8-0.119-1.44-0.359-1.92
		c-0.24-0.48-0.545-0.865-0.915-1.155c-0.37-0.29-0.766-0.53-1.186-0.72s-0.814-0.4-1.185-0.63c-0.37-0.229-0.675-0.52-0.915-0.87
		s-0.36-0.835-0.36-1.455h1.561C105.155,48.744,106.73,48.974,107.9,49.434z"/>
	<path style="fill:#FBC82C;" d="M125.045,48.129c-0.221,0.35-0.501,0.641-0.841,0.87c-0.34,0.23-0.7,0.44-1.079,0.63
		c-0.381,0.19-0.74,0.43-1.08,0.72c-0.341,0.29-0.62,0.675-0.841,1.155c-0.22,0.48-0.329,1.121-0.329,1.92v2.07
		c0,1.1-0.221,1.995-0.66,2.685c-0.44,0.69-0.971,1.229-1.59,1.62c-0.621,0.39-1.256,0.66-1.905,0.81
		c-0.65,0.149-1.195,0.226-1.635,0.226h-0.69v-6.601c0-0.88,0.12-1.77,0.36-2.67c0.239-0.9,0.699-1.71,1.38-2.43
		c0.68-0.72,1.635-1.31,2.865-1.77c1.229-0.459,2.835-0.69,4.814-0.69h1.561C125.375,47.294,125.265,47.779,125.045,48.129z"/>
	<path style="fill:#FBC82C;" d="M136.985,46.164c1.98,0,3.62,0.23,4.921,0.69c1.3,0.46,2.34,1.055,3.119,1.785
		c0.78,0.73,1.325,1.545,1.636,2.445c0.31,0.9,0.465,1.79,0.465,2.67v7.081h-2.16c-0.96,0-1.74-0.15-2.34-0.451
		c-0.72,0.281-1.54,0.506-2.46,0.676s-1.971,0.255-3.15,0.255c-1.979,0-3.62-0.229-4.92-0.69c-1.3-0.459-2.335-1.049-3.104-1.77
		c-0.771-0.721-1.315-1.53-1.636-2.43c-0.32-0.9-0.479-1.79-0.479-2.67c0-0.88,0.154-1.77,0.465-2.67
		c0.31-0.9,0.85-1.715,1.62-2.445c0.77-0.73,1.805-1.325,3.104-1.785C133.365,46.394,135.005,46.164,136.985,46.164z
		 M137.015,57.174c0.92,0,1.655-0.12,2.205-0.36c0.55-0.24,0.97-0.53,1.26-0.87c0.29-0.34,0.476-0.709,0.556-1.11
		c0.079-0.4,0.12-0.76,0.12-1.08c0-0.32-0.041-0.685-0.12-1.095c-0.08-0.41-0.266-0.785-0.556-1.125c-0.29-0.34-0.71-0.63-1.26-0.87
		c-0.55-0.24-1.295-0.36-2.235-0.36c-0.939,0-1.68,0.12-2.22,0.36c-0.54,0.24-0.955,0.53-1.245,0.87
		c-0.29,0.34-0.475,0.715-0.555,1.125c-0.08,0.41-0.12,0.775-0.12,1.095c0,0.32,0.045,0.68,0.135,1.08
		c0.09,0.4,0.275,0.77,0.556,1.11c0.279,0.34,0.694,0.63,1.245,0.87C135.331,57.054,136.075,57.174,137.015,57.174z"/>
	<path style="fill:#FBC82C;" d="M155.645,67.614c-0.44,0-0.99-0.074-1.65-0.225s-1.3-0.42-1.92-0.811
		c-0.62-0.39-1.15-0.93-1.59-1.619c-0.44-0.69-0.66-1.586-0.66-2.686l0.03-8.7c0.02-0.86,0.189-1.73,0.51-2.61
		c0.319-0.88,0.865-1.675,1.635-2.385s1.8-1.285,3.09-1.725s2.915-0.66,4.875-0.66c1.98,0,3.62,0.23,4.92,0.69
		c1.3,0.46,2.335,1.05,3.105,1.77c0.77,0.72,1.31,1.53,1.62,2.43c0.31,0.9,0.465,1.79,0.465,2.67c0,0.88-0.155,1.77-0.465,2.67
		c-0.311,0.9-0.855,1.709-1.635,2.43c-0.78,0.721-1.82,1.311-3.12,1.77c-1.301,0.461-2.94,0.69-4.92,0.69
		c-1.341,0-2.54-0.11-3.601-0.33v6.63H155.645z M164.105,53.754c0-0.32-0.041-0.68-0.12-1.08c-0.08-0.4-0.266-0.775-0.555-1.125
		c-0.291-0.35-0.711-0.64-1.261-0.87s-1.285-0.345-2.205-0.345c-0.94,0-1.685,0.115-2.234,0.345c-0.551,0.23-0.966,0.52-1.245,0.87
		c-0.28,0.35-0.465,0.725-0.555,1.125c-0.091,0.4-0.136,0.76-0.136,1.08c0,0.34,0.04,0.705,0.12,1.095
		c0.08,0.39,0.265,0.76,0.555,1.11c0.29,0.35,0.705,0.64,1.245,0.87s1.28,0.345,2.221,0.345c0.939,0,1.685-0.115,2.234-0.345
		s0.97-0.52,1.261-0.87c0.289-0.35,0.475-0.72,0.555-1.11C164.064,54.459,164.105,54.094,164.105,53.754z"/>
	<path style="fill:#FBC82C;" d="M182.885,46.164c1.979,0,3.619,0.23,4.92,0.69c1.3,0.46,2.34,1.05,3.12,1.77
		c0.779,0.72,1.324,1.53,1.635,2.43c0.31,0.9,0.465,1.79,0.465,2.67v7.11h-2.16c-1.54,0-2.645-0.385-3.314-1.155
		c-0.671-0.771-1.006-1.825-1.006-3.165v-2.79c0-0.32-0.015-0.68-0.045-1.08c-0.029-0.4-0.154-0.77-0.375-1.11
		c-0.22-0.34-0.58-0.63-1.08-0.87c-0.5-0.24-1.21-0.36-2.13-0.36c-0.94,0-1.655,0.12-2.145,0.36c-0.49,0.24-0.846,0.53-1.065,0.87
		c-0.22,0.34-0.345,0.71-0.375,1.11c-0.029,0.4-0.045,0.76-0.045,1.08v7.11h-2.16c-1.54,0-2.65-0.385-3.33-1.155
		s-1.02-1.825-1.02-3.165v-11.31c0-1.1,0.22-1.995,0.66-2.685c0.439-0.69,0.97-1.23,1.59-1.62s1.26-0.655,1.92-0.795
		c0.66-0.14,1.21-0.21,1.65-0.21h0.689v6.63C180.305,46.284,181.505,46.164,182.885,46.164z"/>
	<path style="fill:#FBC82C;" d="M202.535,46.674v14.161h-2.159c-1.541,0-2.65-0.381-3.33-1.141c-0.681-0.76-1.021-1.819-1.021-3.18
		v-4.5c0-1.1,0.22-1.995,0.66-2.685c0.439-0.69,0.97-1.23,1.59-1.62s1.26-0.66,1.92-0.81s1.21-0.225,1.65-0.225H202.535z
		 M201.831,40.149c-0.15-0.31-0.351-0.58-0.601-0.81c-0.25-0.229-0.545-0.41-0.885-0.54c-0.341-0.13-0.7-0.195-1.08-0.195
		s-0.74,0.065-1.08,0.195c-0.34,0.13-0.635,0.311-0.885,0.54c-0.251,0.23-0.445,0.5-0.585,0.81c-0.141,0.311-0.21,0.645-0.21,1.005
		c0,0.34,0.069,0.666,0.21,0.975c0.14,0.311,0.334,0.581,0.585,0.81c0.25,0.23,0.545,0.41,0.885,0.54
		c0.34,0.13,0.7,0.195,1.08,0.195s0.739-0.064,1.08-0.195c0.34-0.13,0.635-0.31,0.885-0.54c0.25-0.229,0.45-0.5,0.601-0.81
		c0.149-0.31,0.225-0.635,0.225-0.975C202.055,40.794,201.98,40.459,201.831,40.149z"/>
	<path style="fill:#FBC82C;" d="M205.535,53.724c0-0.88,0.154-1.77,0.465-2.67c0.31-0.9,0.845-1.71,1.604-2.43
		c0.761-0.72,1.79-1.31,3.091-1.77c1.3-0.46,2.939-0.69,4.92-0.69c0.8,0,1.609,0.065,2.43,0.195c0.82,0.13,1.6,0.315,2.34,0.555
		c0.74,0.24,1.41,0.525,2.01,0.855c0.601,0.33,1.09,0.685,1.471,1.065c-0.141,0.38-0.341,0.73-0.601,1.05
		c-0.26,0.32-0.585,0.581-0.975,0.78c-0.39,0.2-0.84,0.325-1.35,0.375c-0.511,0.05-1.065-0.005-1.665-0.165
		c-0.701-0.2-1.341-0.345-1.921-0.435s-1.16-0.135-1.739-0.135c-0.94,0-1.681,0.12-2.221,0.36c-0.54,0.24-0.955,0.53-1.244,0.87
		c-0.291,0.34-0.476,0.715-0.556,1.125c-0.08,0.41-0.12,0.775-0.12,1.095c0,0.32,0.045,0.68,0.136,1.08
		c0.09,0.4,0.274,0.77,0.555,1.11c0.279,0.34,0.694,0.63,1.245,0.87c0.55,0.24,1.295,0.36,2.234,0.36h0.03
		c0.56,0,1.13-0.045,1.71-0.135s1.22-0.235,1.92-0.435c0.601-0.16,1.155-0.215,1.665-0.165c0.51,0.05,0.96,0.175,1.351,0.375
		c0.39,0.2,0.715,0.46,0.975,0.78c0.26,0.32,0.46,0.67,0.6,1.05c-0.38,0.4-0.869,0.761-1.47,1.08c-0.6,0.319-1.271,0.601-2.01,0.84
		c-0.74,0.24-1.521,0.425-2.34,0.556c-0.82,0.129-1.631,0.194-2.431,0.194c-1.979,0-3.62-0.229-4.92-0.69
		c-1.3-0.459-2.33-1.055-3.09-1.785c-0.76-0.729-1.3-1.544-1.62-2.444S205.535,54.604,205.535,53.724z"/>
	<path style="fill:#FBC82C;" d="M243.304,39.894v20.94h-2.16c-1.54,0-2.65-0.381-3.33-1.141s-1.02-1.819-1.02-3.18v-11.28
		c0-1.1,0.22-1.995,0.66-2.685c0.439-0.69,0.97-1.23,1.59-1.62c0.62-0.39,1.26-0.66,1.92-0.81c0.66-0.15,1.21-0.225,1.65-0.225
		H243.304z"/>
	<path style="fill:#FBC82C;" d="M255.724,46.194c1.98,0,3.585,0.23,4.815,0.69c1.229,0.46,2.185,1.05,2.864,1.77
		c0.68,0.72,1.141,1.53,1.381,2.43c0.239,0.9,0.359,1.79,0.359,2.67v7.081h-2.16c-1.54,0-2.645-0.381-3.314-1.141
		c-0.671-0.76-1.005-1.819-1.005-3.18v-2.76c0-0.32-0.016-0.68-0.045-1.08c-0.03-0.4-0.136-0.775-0.315-1.125
		c-0.18-0.35-0.47-0.64-0.87-0.87s-0.97-0.345-1.71-0.345c-0.76,0-1.335,0.115-1.725,0.345c-0.391,0.23-0.676,0.52-0.855,0.87
		c-0.18,0.35-0.285,0.725-0.314,1.125c-0.03,0.4-0.045,0.76-0.045,1.08v7.081h-2.131c-1.54,0-2.65-0.381-3.33-1.141
		s-1.02-1.819-1.02-3.18v-2.76c0-0.88,0.12-1.77,0.36-2.67c0.239-0.9,0.699-1.71,1.38-2.43c0.68-0.72,1.635-1.31,2.865-1.77
		C252.139,46.424,253.745,46.194,255.724,46.194z"/>
	<path style="fill:#FBC82C;" d="M275.554,55.734c-2.9-0.58-4.971-1.315-6.21-2.205c-1.24-0.89-1.78-1.935-1.62-3.135
		c0.1-0.78,0.409-1.44,0.93-1.98s1.155-0.975,1.905-1.305s1.564-0.565,2.445-0.705c0.88-0.14,1.729-0.21,2.55-0.21
		c0.8,0,1.59,0.065,2.37,0.195c0.779,0.13,1.515,0.315,2.205,0.555c0.689,0.24,1.314,0.525,1.875,0.855
		c0.56,0.33,1.029,0.686,1.409,1.065c-0.3,0.82-0.82,1.311-1.56,1.47c-0.74,0.16-1.59,0.13-2.55-0.09c-0.44-0.1-0.86-0.19-1.26-0.27
		c-0.4-0.08-0.791-0.14-1.17-0.18c-0.36-0.04-0.705-0.06-1.035-0.06s-0.626,0.03-0.886,0.09c-0.26,0.06-0.465,0.155-0.614,0.285
		c-0.15,0.13-0.216,0.295-0.195,0.495c0.02,0.22,0.145,0.39,0.375,0.51c0.229,0.12,0.585,0.23,1.065,0.33
		c2.959,0.6,5.074,1.36,6.345,2.28c1.27,0.92,1.824,2.05,1.665,3.39c-0.101,0.78-0.41,1.44-0.931,1.98
		c-0.52,0.539-1.154,0.975-1.904,1.305s-1.565,0.564-2.445,0.705c-0.88,0.14-1.73,0.21-2.55,0.21c-0.82,0-1.615-0.065-2.385-0.194
		c-0.771-0.131-1.5-0.315-2.19-0.556c-0.689-0.239-1.315-0.521-1.875-0.84c-0.561-0.319-1.03-0.68-1.41-1.08
		c0.14-0.42,0.346-0.745,0.615-0.975c0.27-0.229,0.585-0.395,0.945-0.495c0.359-0.1,0.754-0.135,1.185-0.105
		c0.43,0.03,0.885,0.095,1.365,0.195c0.46,0.1,0.89,0.19,1.29,0.27c0.399,0.08,0.79,0.14,1.17,0.18c0.7,0.101,1.31,0.08,1.83-0.06
		c0.52-0.14,0.819-0.39,0.899-0.75c0.08-0.36-0.055-0.62-0.404-0.78C276.449,55.964,276.034,55.834,275.554,55.734z"/>
	<path style="fill:#FBC82C;" d="M297.155,44.724c0,0.58-0.101,1.04-0.301,1.38c-0.2,0.34-0.455,0.625-0.765,0.855
		c-0.311,0.23-0.65,0.435-1.021,0.615c-0.37,0.18-0.72,0.4-1.05,0.66c-0.33,0.26-0.62,0.59-0.87,0.99
		c-0.25,0.4-0.404,0.93-0.465,1.59v4.68c0,1.1-0.22,1.995-0.66,2.685c-0.439,0.69-0.97,1.229-1.59,1.62
		c-0.62,0.39-1.26,0.66-1.92,0.81s-1.21,0.226-1.649,0.226h-0.69V45.594c0-1.1,0.22-1.995,0.66-2.685
		c0.439-0.69,0.97-1.23,1.59-1.62s1.26-0.66,1.92-0.81s1.21-0.225,1.65-0.225h0.689v4.68c0.82-0.14,1.79-0.21,2.91-0.21H297.155z"/>
	<path style="fill:#FBC82C;" d="M304.864,46.674v14.161h-2.159c-1.541,0-2.65-0.381-3.33-1.141c-0.681-0.76-1.021-1.819-1.021-3.18
		v-4.5c0-1.1,0.22-1.995,0.66-2.685c0.439-0.69,0.97-1.23,1.59-1.62s1.26-0.66,1.92-0.81s1.21-0.225,1.65-0.225H304.864z
		 M304.16,40.149c-0.15-0.31-0.351-0.58-0.601-0.81c-0.25-0.229-0.545-0.41-0.885-0.54c-0.341-0.13-0.7-0.195-1.08-0.195
		s-0.74,0.065-1.08,0.195c-0.34,0.13-0.635,0.311-0.885,0.54c-0.251,0.23-0.445,0.5-0.585,0.81c-0.141,0.311-0.21,0.645-0.21,1.005
		c0,0.34,0.069,0.666,0.21,0.975c0.14,0.311,0.334,0.581,0.585,0.81c0.25,0.23,0.545,0.41,0.885,0.54
		c0.34,0.13,0.7,0.195,1.08,0.195s0.739-0.064,1.08-0.195c0.34-0.13,0.635-0.31,0.885-0.54c0.25-0.229,0.45-0.5,0.601-0.81
		c0.149-0.31,0.225-0.635,0.225-0.975C304.384,40.794,304.309,40.459,304.16,40.149z"/>
	<path style="fill:#FBC82C;" d="M319.144,44.724c0,0.58-0.101,1.04-0.301,1.38c-0.2,0.34-0.455,0.625-0.765,0.855
		c-0.311,0.23-0.65,0.435-1.021,0.615c-0.37,0.18-0.72,0.4-1.05,0.66c-0.33,0.26-0.62,0.59-0.87,0.99
		c-0.25,0.4-0.404,0.93-0.465,1.59v4.68c0,1.1-0.22,1.995-0.66,2.685c-0.439,0.69-0.97,1.229-1.59,1.62
		c-0.62,0.39-1.26,0.66-1.92,0.81s-1.21,0.226-1.649,0.226h-0.69V45.594c0-1.1,0.22-1.995,0.66-2.685
		c0.439-0.69,0.97-1.23,1.59-1.62s1.26-0.66,1.92-0.81s1.21-0.225,1.65-0.225h0.689v4.68c0.82-0.14,1.79-0.21,2.91-0.21H319.144z"/>
	<path style="fill:#FBC82C;" d="M338.734,46.674v7.08c0,0.88-0.12,1.77-0.36,2.67c-0.24,0.9-0.7,1.709-1.38,2.43
		c-0.681,0.721-1.635,1.311-2.865,1.77c-1.229,0.461-2.835,0.69-4.815,0.69c-1.979,0-3.585-0.229-4.814-0.69
		c-1.23-0.459-2.186-1.049-2.865-1.77s-1.14-1.53-1.38-2.43c-0.24-0.9-0.36-1.79-0.36-2.67v-1.74c0-1.1,0.221-1.995,0.66-2.685
		s0.97-1.23,1.59-1.62s1.261-0.66,1.92-0.81c0.66-0.15,1.21-0.225,1.65-0.225h0.66v7.08c0,0.34,0.015,0.705,0.045,1.095
		c0.03,0.39,0.135,0.76,0.315,1.11c0.18,0.35,0.465,0.64,0.854,0.87s0.965,0.345,1.725,0.345c0.74,0,1.311-0.115,1.711-0.345
		c0.399-0.23,0.689-0.52,0.869-0.87c0.181-0.35,0.285-0.72,0.315-1.11c0.03-0.39,0.045-0.755,0.045-1.095v-1.74
		c0-1.1,0.22-1.995,0.66-2.685c0.439-0.69,0.965-1.23,1.575-1.62c0.609-0.39,1.245-0.66,1.904-0.81c0.66-0.15,1.21-0.225,1.65-0.225
		H338.734z"/>
	<path style="fill:#FBC82C;" d="M352.564,44.724c0,0.58-0.101,1.04-0.301,1.38c-0.2,0.34-0.455,0.625-0.765,0.855
		c-0.311,0.23-0.65,0.435-1.021,0.615c-0.37,0.18-0.72,0.4-1.05,0.66c-0.33,0.26-0.62,0.59-0.87,0.99
		c-0.25,0.4-0.404,0.93-0.465,1.59v4.68c0,1.1-0.22,1.995-0.66,2.685c-0.439,0.69-0.97,1.229-1.59,1.62
		c-0.62,0.39-1.26,0.66-1.92,0.81s-1.21,0.226-1.649,0.226h-0.69V45.594c0-1.1,0.22-1.995,0.66-2.685
		c0.439-0.69,0.97-1.23,1.59-1.62s1.26-0.66,1.92-0.81s1.21-0.225,1.65-0.225h0.689v4.68c0.82-0.14,1.79-0.21,2.91-0.21H352.564z"/>
	<path style="fill:#FBC82C;" d="M366.063,57.204c1.1-0.28,2.07-0.3,2.91-0.06c0.84,0.24,1.39,0.74,1.649,1.5
		c-0.76,0.78-1.8,1.421-3.119,1.92c-1.32,0.499-3.021,0.75-5.101,0.75c-1.84,0-3.405-0.255-4.695-0.765
		c-1.289-0.51-2.34-1.141-3.149-1.891c-0.811-0.75-1.396-1.564-1.755-2.445c-0.36-0.88-0.54-1.7-0.54-2.46
		c0-0.96,0.199-1.895,0.6-2.805s1.015-1.72,1.845-2.43s1.88-1.28,3.15-1.71c1.27-0.43,2.775-0.645,4.515-0.645
		c1.381,0,2.601,0.155,3.66,0.465c1.061,0.311,1.95,0.725,2.67,1.245c0.721,0.521,1.261,1.115,1.62,1.785
		c0.36,0.67,0.521,1.365,0.48,2.085c-0.061,0.94-0.471,1.73-1.23,2.37c-0.76,0.641-1.725,1.11-2.895,1.41
		c-1.17,0.3-2.48,0.42-3.931,0.36c-1.45-0.06-2.885-0.33-4.305-0.81c0.08,0.34,0.205,0.675,0.375,1.005s0.41,0.62,0.72,0.87
		c0.311,0.25,0.7,0.45,1.17,0.6c0.47,0.15,1.035,0.225,1.695,0.225c0.58,0,1.16-0.05,1.74-0.15S365.363,57.384,366.063,57.204z
		 M362.583,49.704c-0.899,0-1.664,0.185-2.295,0.555c-0.63,0.371-1.064,0.875-1.305,1.515c0.22,0.14,0.5,0.26,0.84,0.36
		c0.28,0.101,0.63,0.186,1.05,0.255c0.421,0.07,0.92,0.105,1.5,0.105c0.9,0,1.561-0.145,1.98-0.435c0.42-0.29,0.63-0.61,0.63-0.96
		c0-0.35-0.205-0.67-0.615-0.96S363.363,49.704,362.583,49.704z"/>
</g>
<path style="fill-rule:evenodd;clip-rule:evenodd;fill:#E52D36;" d="M72.904,20.322c-4.466-4.303-13.896-6.719-14.245,0.05
	c-0.203,3.901,2.501,9.662,6.005,11.637C74.542,37.578,83.404,30.437,72.904,20.322z"/>
<path style="fill-rule:evenodd;clip-rule:evenodd;fill:#EE790F;" d="M58.501,41.584c-1.704,4.677,1.184,9.807,5.188,13.063
	c10.546,8.576,17.625-2.479,14.001-10.375C74.546,37.424,61.502,33.348,58.501,41.584z"/>
<path style="fill-rule:evenodd;clip-rule:evenodd;fill:#FBC82C;" d="M69.969,51.086c-1.187-5.956-6.571-9.928-19.754-3.053
	c-4.691,2.446-8.84,4.34-10.829,9.233c-2.724,6.703,9.322,13.619,15.003,13.193C63.756,69.764,72.007,61.317,69.969,51.086z"/>
<path style="fill-rule:evenodd;clip-rule:evenodd;fill:#8CBE2F;" d="M49.09,56.745c2.923-2.998,2.903-13.75-1.995-15.958
	c-7.838-3.533-19.724-1.951-23.896,6.171C9.955,72.729,33.783,72.448,49.09,56.745z"/>
<path style="fill-rule:evenodd;clip-rule:evenodd;fill:#0077B9;" d="M18.034,46.89c10.245,6.884,17.14,2.942,24.708-4.821
	c17.414-17.863-8.514-36.132-23.942-22.171C12.266,25.807,9.852,41.393,18.034,46.89z"/>
<path style="fill-rule:evenodd;clip-rule:evenodd;fill:#B1026D;" d="M50.064,12.736c-5.294-4.338-12.873,0.494-13.787,6.452
	c-0.952,6.206,2.089,9.217,5.93,9.9C52.815,30.972,58.093,19.318,50.064,12.736z"/>
<path style="fill-rule:evenodd;clip-rule:evenodd;fill:#2C2C83;" d="M48.463,28.515c-0.599-5.834-5.165-10.558-11.006-12.541
	c-0.593,0.995-1.006,2.083-1.18,3.214c-0.952,6.206,2.089,9.217,5.93,9.9C44.594,29.512,46.708,29.249,48.463,28.515z"/>
<path style="fill-rule:evenodd;clip-rule:evenodd;fill:#00785C;" d="M44.649,39.888c-7.679-2.254-17.693-0.245-21.45,7.069
	c-0.389,0.755-0.741,1.487-1.067,2.199c8.081,3.446,14.095-0.405,20.608-7.087C43.45,41.342,44.081,40.615,44.649,39.888z"/>
<path style="fill-rule:evenodd;clip-rule:evenodd;fill:#A5A300;" d="M50.946,47.661c-0.241,0.121-0.485,0.243-0.731,0.372
	c-4.691,2.446-8.84,4.34-10.829,9.233c-0.938,2.309-0.265,4.441,1.128,6.25c2.958-1.746,5.896-4.021,8.576-6.771
	C50.67,55.124,51.392,51.239,50.946,47.661z"/>
<path style="fill-rule:evenodd;clip-rule:evenodd;fill:#EA5D0B;" d="M58.016,44.928c0.203,3.642,2.611,7.229,5.674,9.719
	c2.244,1.826,4.33,2.758,6.191,3.023c0.482-2.059,0.549-4.275,0.089-6.584C69.051,46.48,65.622,43.061,58.016,44.928z"/>
</svg>
