<?xml version="1.0" encoding="utf-8"?>
<!-- Generator: Adobe Illustrator 16.0.0, SVG Export Plug-In . SVG Version: 6.00 Build 0)  -->
<!DOCTYPE svg PUBLIC "-//W3C//DTD SVG 1.1//EN" "http://www.w3.org/Graphics/SVG/1.1/DTD/svg11.dtd">
<svg version="1.1" id="objects" xmlns="http://www.w3.org/2000/svg" xmlns:xlink="http://www.w3.org/1999/xlink" x="0px" y="0px"
	 width="727.463px" height="692.965px" viewBox="39.609 32.108 727.463 692.965"
	 enable-background="new 39.609 32.108 727.463 692.965" xml:space="preserve">
<rect x="349.826" y="444.889" fill="#414141" width="98.915" height="22.409"/>
<rect x="259.266" y="270.353" fill="#FFFFFF" width="281.768" height="160.871"/>
<g>
	<rect x="267.973" y="282.249" fill="#FFFFFF" width="262.628" height="129.833"/>
	<rect x="267.973" y="282.249" fill="#90BCE2" width="262.628" height="6.307"/>
	<rect x="338.174" y="292.384" fill="#ACD85B" width="122.218" height="9.608"/>
	<rect x="267.973" y="313.235" fill="#5895CB" width="262.628" height="26.471"/>
	<rect x="318.414" y="305.747" fill="#90BCE2" width="161.736" height="4.025"/>
	<rect x="283.875" y="345.021" fill="#FFAD00" width="65.95" height="21.4"/>
	<rect x="366.313" y="345.021" fill="#FF4938" width="65.948" height="21.4"/>
	<rect x="448.74" y="345.021" fill="#94B950" width="65.946" height="21.4"/>
	<rect x="267.973" y="400.543" fill="#90BCE2" width="262.628" height="11.539"/>
	<rect x="283.875" y="369.354" fill="#90BCE2" width="65.95" height="4.024"/>
	<rect x="283.875" y="376.267" fill="#90BCE2" width="65.95" height="4.029"/>
	<rect x="283.875" y="383.184" fill="#90BCE2" width="65.95" height="4.031"/>
	<rect x="283.875" y="390.1" fill="#90BCE2" width="41.758" height="4.024"/>
	<rect x="366.313" y="369.354" fill="#90BCE2" width="65.948" height="4.024"/>
	<rect x="366.313" y="376.267" fill="#90BCE2" width="65.948" height="4.029"/>
	<rect x="366.313" y="383.184" fill="#90BCE2" width="65.948" height="4.031"/>
	<rect x="366.313" y="390.1" fill="#90BCE2" width="41.767" height="4.024"/>
	<rect x="448.74" y="369.354" fill="#90BCE2" width="65.946" height="4.024"/>
	<rect x="448.74" y="376.267" fill="#90BCE2" width="65.946" height="4.029"/>
	<rect x="448.74" y="383.184" fill="#90BCE2" width="65.946" height="4.031"/>
	<rect x="448.74" y="390.1" fill="#90BCE2" width="41.754" height="4.024"/>
</g>
<g id="Laptop">
	<g>
		<path fill="#666666" stroke="#E8E7E8" stroke-width="1.0293" stroke-miterlimit="10" d="M528.483,253.43H270.1
			c-16.438,0-29.814,13.56-29.814,30.227V414.66c0,16.665,13.377,30.229,29.814,30.229h258.384
			c16.442,0,29.813-13.563,29.813-30.229V283.657C558.295,266.99,544.926,253.43,528.483,253.43z M538.422,414.66
			c0,5.55-4.438,10.076-9.938,10.076H270.1c-5.488,0-9.937-4.526-9.937-10.076V283.657c0-5.548,4.448-10.082,9.937-10.082h258.384
			c5.501,0,9.938,4.533,9.938,10.082V414.66z"/>
	</g>
</g>
<g>
	<path fill="#333333" d="M405.069,263.979c0,3.286-2.587,5.95-5.779,5.95s-5.781-2.664-5.781-5.95c0-3.289,2.589-5.952,5.781-5.952
		S405.069,260.689,405.069,263.979z"/>
	<path fill="none" stroke="#E8E7E8" stroke-width="1.0293" stroke-miterlimit="10" d="M399.289,266.84
		c-1.484,0-2.693-1.284-2.693-2.862c0-1.579,1.208-2.864,2.693-2.864c1.484,0,2.691,1.285,2.691,2.864
		S400.774,266.84,399.289,266.84z"/>
</g>
<path fill="#E8E7E8" stroke="#666666" stroke-width="1.0293" stroke-miterlimit="10" d="M561.021,443.996H443.915
	c0,5.552-5.005,10.065-11.168,10.065h-66.922c-6.167,0-11.149-4.515-11.149-10.065H237.56c-9.237,0-16.73,6.77-16.73,15.113
	c0,8.343,7.493,15.11,16.73,15.11h323.46c9.24,0,16.729-6.769,16.729-15.11C577.75,450.766,570.261,443.996,561.021,443.996z"/>
<ellipse fill="#E8E7E8" cx="399.288" cy="435.882" rx="5.781" ry="5.949"/>
<g opacity="0.45">
	<g>
		<path fill="#666666" d="M237.56,474.221h323.46c9.24,0,16.729-6.769,16.729-15.11H220.829
			C220.829,467.452,228.323,474.221,237.56,474.221z"/>
	</g>
</g>
<g opacity="0.25">
	<g>
		<path fill="#E8E7E8" d="M528.483,253.43H366.668l182.73,182.745c5.487-5.485,8.896-13.104,8.896-21.515V283.657
			C558.295,266.99,544.926,253.43,528.483,253.43z"/>
	</g>
</g>
<circle fill="none" stroke="#E8E7E8" stroke-width="2" stroke-linecap="round" stroke-linejoin="round" stroke-miterlimit="10" stroke-dasharray="8" cx="400" cy="368" r="290.056"/>
<g opacity="0.2">
	<path d="M456.398,83.717l-49.731-13.099l-2.41,9.149l-17.538-4.62l-4.688,17.802l17.537,4.62l-1.846,7.011l49.731,13.099
		c7.862,2.07,15.992-2.669,18.064-10.533l1.412-5.366C469.002,93.918,464.264,85.788,456.398,83.717z"/>
	<path d="M359.565,58.211c-7.866-2.072-15.993,2.668-18.066,10.534l-1.412,5.363c-2.07,7.864,2.667,15.993,10.534,18.067
		l14.962,3.939l1.454-5.517l0,0l6.021-22.853l1.473-5.593L359.565,58.211z"/>
</g>
<g>
	
		<rect x="373.746" y="69.664" transform="matrix(-0.967 -0.2548 0.2548 -0.967 752.1326 255.1652)" fill="#FFFFFF" width="37.694" height="18.408"/>
	<g>
		<path fill="#414141" d="M396.665,60.618l49.733,13.099c7.865,2.071,12.604,10.201,10.532,18.063l-1.412,5.366
			c-2.072,7.863-10.202,12.603-18.064,10.533L387.722,94.58L396.665,60.618z"/>
		<path fill="#666666" d="M395.212,66.138l46.423,12.226c5.308,1.396,8.508,6.886,7.107,12.194l-0.955,3.622
			c-1.396,5.308-6.887,8.508-12.188,7.11l-46.424-12.227L395.212,66.138z"/>
	</g>
	<g>
		<path fill="#414141" d="M349.565,48.211l14.965,3.941l-8.947,33.962l-14.962-3.939c-7.867-2.074-12.604-10.204-10.534-18.067
			l1.412-5.363C333.572,50.879,341.698,46.139,349.565,48.211z"/>
		<path fill="#666666" d="M351.416,54.601l11.659,3.071l-6.039,22.926l-11.656-3.071c-5.308-1.396-8.512-6.886-7.11-12.194
			l0.952-3.622C340.62,56.403,346.11,53.204,351.416,54.601z"/>
	</g>
	<g>
		<circle fill="#6CA3B8" cx="379.467" cy="71.527" r="1.9"/>
		<circle fill="#6CA3B8" cx="377.412" cy="79.323" r="1.899"/>
	</g>
</g>
<g opacity="0.2">
	<g>
		<path d="M682.827,498.184h-57.81c-11.5,0-20.855,9.355-20.855,20.854v99.801c0,11.5,9.355,20.855,20.855,20.855h57.81
			c11.5,0,20.855-9.355,20.855-20.855v-99.801C703.684,507.539,694.327,498.184,682.827,498.184z"/>
	</g>
	<g>
		<path fill="none" stroke="#E8E7E8" stroke-miterlimit="10" d="M682.827,498.184h-57.81c-11.5,0-20.855,9.355-20.855,20.854v99.801
			c0,11.5,9.355,20.855,20.855,20.855h57.81c11.5,0,20.855-9.355,20.855-20.855v-99.801
			C703.684,507.539,694.327,498.184,682.827,498.184z"/>
	</g>
</g>
<g>
	<g>
		<path fill="#414141" stroke="#E8E7E8" stroke-miterlimit="10" d="M672.827,488.684h-57.81c-11.197,0-20.355,9.159-20.355,20.354
			v99.801c0,11.196,9.158,20.355,20.355,20.355h57.81c11.194,0,20.355-9.159,20.355-20.355v-99.801
			C693.184,497.843,684.022,488.684,672.827,488.684z"/>
		<path fill="#596274" d="M685.892,500.466h-83.937c-0.166,0-0.297,0.135-0.297,0.297v115.176c0,0.162,0.131,0.296,0.297,0.296
			h83.937c0.161,0,0.296-0.134,0.296-0.296V500.763C686.188,500.601,686.053,500.466,685.892,500.466z"/>
		<path fill="#596274" d="M654.731,492.159h-21.613c-0.588,0-1.067,0.479-1.067,1.063v0.002c0,0.586,0.479,1.064,1.067,1.064h21.613
			c0.584,0,1.063-0.479,1.063-1.064v-0.002C655.795,492.638,655.315,492.159,654.731,492.159z"/>
		<path fill="#596274" d="M643.923,626.114c1.981,0,3.602-1.617,3.602-3.602c0-1.983-1.619-3.603-3.602-3.603
			c-1.983,0-3.603,1.619-3.603,3.603C640.321,624.497,641.939,626.114,643.923,626.114z"/>
	</g>
	<g>
		<rect x="601.658" y="500.466" fill="#FFFFFF" width="84.528" height="115.769"/>
		<rect x="601.658" y="500.466" fill="#90BCE2" width="84.528" height="5.621"/>
		<rect x="624.253" y="509.507" fill="#ACD85B" width="39.339" height="8.563"/>
		<rect x="601.658" y="528.096" fill="#5895CB" width="84.528" height="23.604"/>
		<rect x="617.894" y="521.418" fill="#90BCE2" width="52.058" height="3.59"/>
		<rect x="606.777" y="556.438" fill="#FFAD00" width="21.227" height="19.074"/>
		<rect x="633.31" y="556.438" fill="#FF4938" width="21.227" height="19.074"/>
		<rect x="659.841" y="556.438" fill="#94B950" width="21.227" height="19.074"/>
		<rect x="601.658" y="605.942" fill="#90BCE2" width="84.528" height="10.291"/>
		<rect x="606.777" y="578.131" fill="#90BCE2" width="21.227" height="3.589"/>
		<rect x="606.777" y="584.296" fill="#90BCE2" width="21.227" height="3.592"/>
		<rect x="606.777" y="590.464" fill="#90BCE2" width="21.227" height="3.588"/>
		<rect x="606.777" y="596.63" fill="#90BCE2" width="13.438" height="3.59"/>
		<rect x="633.31" y="578.131" fill="#90BCE2" width="21.227" height="3.589"/>
		<rect x="633.31" y="584.296" fill="#90BCE2" width="21.227" height="3.592"/>
		<rect x="633.31" y="590.464" fill="#90BCE2" width="21.227" height="3.588"/>
		<rect x="633.31" y="596.63" fill="#90BCE2" width="13.438" height="3.59"/>
		<rect x="659.841" y="578.131" fill="#90BCE2" width="21.227" height="3.589"/>
		<rect x="659.841" y="584.296" fill="#90BCE2" width="21.227" height="3.592"/>
		<rect x="659.841" y="590.464" fill="#90BCE2" width="21.227" height="3.588"/>
		<rect x="659.841" y="596.63" fill="#90BCE2" width="13.438" height="3.59"/>
	</g>
	<path fill="#FFFFFF" d="M680.629,536.325c-0.245-0.308-0.192-0.756,0.114-1.001c0.308-0.245,0.757-0.194,1.001,0.115l1.851,2.313
		c0.018,0.021,0.03,0.041,0.047,0.064l0.002,0.003l0.017,0.027l0.016,0.027l0.004,0.006l0.012,0.025l0.008,0.018
		c0.011,0.023,0.02,0.049,0.026,0.073l0.003,0.008c0.009,0.031,0.016,0.064,0.021,0.097v0.007c0.004,0.023,0.006,0.049,0.008,0.074
		v0.017v0.009v0.016c-0.002,0.024-0.004,0.052-0.008,0.074v0.006c-0.006,0.031-0.013,0.065-0.021,0.099l-0.003,0.006
		c-0.008,0.025-0.017,0.051-0.026,0.074l-0.008,0.019l-0.012,0.025l-0.004,0.007l-0.016,0.023l-0.017,0.03l-0.002,0.004
		c-0.017,0.021-0.029,0.043-0.047,0.063l-1.851,2.313c-0.244,0.31-0.692,0.359-1.001,0.115c-0.308-0.246-0.359-0.695-0.114-1.003
		l1.499-1.876L680.629,536.325z"/>
	<path fill="#FFFFFF" d="M606.097,535.439c0.246-0.311,0.694-0.36,1.004-0.115c0.311,0.245,0.36,0.693,0.115,1.001l-1.5,1.879
		l1.5,1.876c0.245,0.308,0.194,0.757-0.115,1.003c-0.31,0.244-0.758,0.193-1.004-0.115l-1.847-2.313
		c-0.016-0.021-0.03-0.041-0.045-0.063l-0.004-0.004l-0.018-0.03l-0.014-0.023l-0.005-0.007l-0.012-0.025l-0.006-0.018
		c-0.012-0.022-0.021-0.05-0.029-0.075l-0.002-0.006c-0.008-0.032-0.016-0.066-0.02-0.099l-0.002-0.006
		c-0.004-0.023-0.004-0.05-0.004-0.074l-0.003-0.016v-0.009l0.003-0.017c0-0.025,0-0.051,0.004-0.074l0.002-0.007
		c0.004-0.031,0.01-0.064,0.02-0.097l0.002-0.008c0.009-0.024,0.019-0.05,0.029-0.073l0.006-0.018l0.012-0.025l0.005-0.006
		l0.014-0.027l0.018-0.027l0.004-0.003c0.015-0.023,0.029-0.043,0.045-0.064L606.097,535.439z"/>
	<g opacity="0.25">
		<g>
			<path fill="#E8E7E8" d="M672.827,488.184h-57.81c-4.091,0-7.898,1.201-11.122,3.244l89.787,89.786v-72.176
				C693.684,497.539,684.327,488.184,672.827,488.184z"/>
		</g>
		<g>
			<path fill="none" stroke="#E8E7E8" stroke-miterlimit="10" d="M672.827,488.184h-57.81c-4.091,0-7.898,1.201-11.122,3.244
				l89.787,89.786v-72.176C693.684,497.539,684.327,488.184,672.827,488.184z"/>
		</g>
	</g>
</g>
<polygon opacity="0.2" stroke="#000000" stroke-width="3.3276" stroke-linecap="round" stroke-linejoin="round" stroke-miterlimit="10" enable-background="new    " points="
	697.98,177.634 692.241,152.954 692.239,152.959 692.238,152.954 644.327,126.062 626.923,157.478 620.938,133.704 599.93,119.719 
	599.93,119.72 599.928,119.719 546.774,133.263 570.164,226.162 609.437,216.155 660.694,244.93 "/>
<g>
	<g>
		<g>
			<polyline fill="#FFFFFF" points="610.938,123.704 629.752,198.43 560.164,216.162 536.774,123.263 589.928,109.719 			"/>
			<polygon fill="#B3B3B3" points="589.93,109.719 610.938,123.704 594.506,127.89 			"/>
		</g>
		
			<line fill="none" stroke="#B3B3B3" stroke-width="3.3276" stroke-linecap="round" stroke-linejoin="round" stroke-miterlimit="10" x1="552.968" y1="154.733" x2="605.651" y2="141.311"/>
		
			<line fill="none" stroke="#B3B3B3" stroke-width="3.3276" stroke-linecap="round" stroke-linejoin="round" stroke-miterlimit="10" x1="554.911" y1="162.463" x2="607.596" y2="149.039"/>
		
			<line fill="none" stroke="#B3B3B3" stroke-width="3.3276" stroke-linecap="round" stroke-linejoin="round" stroke-miterlimit="10" x1="556.857" y1="170.191" x2="609.541" y2="156.769"/>
		
			<line fill="none" stroke="#B3B3B3" stroke-width="3.3276" stroke-linecap="round" stroke-linejoin="round" stroke-miterlimit="10" x1="558.807" y1="177.919" x2="611.488" y2="164.496"/>
		
			<line fill="none" stroke="#B3B3B3" stroke-width="3.3276" stroke-linecap="round" stroke-linejoin="round" stroke-miterlimit="10" x1="560.752" y1="185.646" x2="613.433" y2="172.225"/>
		
			<line fill="none" stroke="#B3B3B3" stroke-width="3.3276" stroke-linecap="round" stroke-linejoin="round" stroke-miterlimit="10" x1="562.699" y1="193.376" x2="615.378" y2="179.953"/>
		
			<polygon fill="#B3B3B3" stroke="#B3B3B3" stroke-width="3.3276" stroke-linecap="round" stroke-linejoin="round" stroke-miterlimit="10" points="
			577.859,135.787 550.7,142.707 547.48,129.908 574.64,122.988 		"/>
	</g>
	<g>
		<g>
			<polyline fill="#FFFFFF" points="687.98,167.634 650.694,234.93 587.979,199.723 634.327,116.062 682.238,142.954 			"/>
			<polygon fill="#B3B3B3" points="682.241,142.954 687.98,167.634 673.174,159.321 			"/>
		</g>
		
			<line fill="none" stroke="#B3B3B3" stroke-width="3.3276" stroke-linecap="round" stroke-linejoin="round" stroke-miterlimit="10" x1="624.646" y1="150.118" x2="672.123" y2="176.772"/>
		
			<line fill="none" stroke="#B3B3B3" stroke-width="3.3276" stroke-linecap="round" stroke-linejoin="round" stroke-miterlimit="10" x1="620.782" y1="157.078" x2="668.267" y2="183.734"/>
		
			<line fill="none" stroke="#B3B3B3" stroke-width="3.3276" stroke-linecap="round" stroke-linejoin="round" stroke-miterlimit="10" x1="616.928" y1="164.037" x2="664.409" y2="190.692"/>
		
			<line fill="none" stroke="#B3B3B3" stroke-width="3.3276" stroke-linecap="round" stroke-linejoin="round" stroke-miterlimit="10" x1="613.072" y1="170.998" x2="660.553" y2="197.652"/>
		
			<line fill="none" stroke="#B3B3B3" stroke-width="3.3276" stroke-linecap="round" stroke-linejoin="round" stroke-miterlimit="10" x1="609.216" y1="177.958" x2="656.698" y2="204.614"/>
		
			<line fill="none" stroke="#B3B3B3" stroke-width="3.3276" stroke-linecap="round" stroke-linejoin="round" stroke-miterlimit="10" x1="605.363" y1="184.917" x2="652.843" y2="211.573"/>
		
			<polygon fill="#B3B3B3" stroke="#B3B3B3" stroke-width="3.3276" stroke-linecap="round" stroke-linejoin="round" stroke-miterlimit="10" points="
			655.68,153.555 631.199,139.814 637.586,128.287 662.063,142.028 		"/>
	</g>
</g>
<path opacity="0.2" enable-background="new    " d="M456.711,567.343c-2.109-2.09-4.975-2.062-6.518-2.049l-46.882,0.002
	c-0.9,0-5.388-0.26-5.388-5.387v-0.528c2.188-0.018,4.255-0.521,5.827-1.433c1.685-0.978,2.61-2.298,2.608-3.723l-0.018-22.889
	l-2.722,0.002l-0.008-10.895l-14.836,0.013l0.007,10.892l-2.549,0.002l0.019,22.891c0,2.838,3.827,5.146,8.533,5.146h0.137v0.521
	c0,5.794,4.212,8.387,8.388,8.387h46.558l0.354-0.002c1.26-0.021,3.156-0.029,4.377,1.18c0.981,0.974,1.479,2.666,1.479,5.032
	c0,2.066-0.55,3.628-1.633,4.642c-1.715,1.603-4.313,1.444-4.33,1.443l-90.87-0.005c-5.637,0-11.702,3.35-11.702,10.703
	c0,7.011,6.609,10.123,9.122,10.123h45.755c2.173,0,3.783,0.563,4.792,1.679c1.524,1.686,1.3,4.195,1.295,4.242
	c-0.007,0.054,0,0.105,0,0.158h-2.454c-0.604,0-1.202,0.027-1.796,0.068c-0.146,0.011-0.293,0.021-0.438,0.033
	c-0.59,0.05-1.176,0.113-1.754,0.202c-0.013,0.002-0.025,0.005-0.037,0.007c-0.57,0.089-1.131,0.201-1.688,0.326
	c-0.136,0.031-0.271,0.063-0.404,0.095c-0.564,0.137-1.123,0.284-1.671,0.457c-0.017,0.005-0.034,0.013-0.051,0.019
	c-0.537,0.169-1.063,0.359-1.584,0.563c-0.119,0.047-0.238,0.094-0.356,0.143c-0.534,0.217-1.062,0.445-1.578,0.697
	c-0.014,0.008-0.027,0.016-0.042,0.021c-0.505,0.247-0.998,0.514-1.483,0.792c-0.101,0.058-0.199,0.114-0.297,0.172
	c-0.5,0.295-0.991,0.603-1.47,0.929c-0.005,0.003-0.011,0.009-0.016,0.013c-0.473,0.322-0.933,0.666-1.381,1.02
	c-0.077,0.062-0.153,0.12-0.229,0.183c-0.914,0.733-1.776,1.529-2.584,2.38c-0.057,0.06-0.113,0.118-0.169,0.178
	c-0.81,0.869-1.56,1.793-2.248,2.766c-0.039,0.057-0.079,0.111-0.118,0.167c-0.686,0.988-1.305,2.025-1.852,3.105
	c-0.028,0.055-0.056,0.107-0.083,0.163c-1.756,3.524-2.75,7.502-2.75,11.714V688.3c0,14.477,11.676,26.21,26.08,26.21h7.891
	c9.184,0,17.251-4.772,21.898-11.98l0,0c0.001-0.002,0.002-0.003,0.003-0.005c0.657-1.021,1.246-2.087,1.76-3.197
	c0.005-0.012,0.01-0.023,0.016-0.035c0.246-0.536,0.478-1.082,0.688-1.637c0.009-0.023,0.018-0.046,0.027-0.069
	c0.211-0.561,0.403-1.129,0.577-1.707c0.013-0.039,0.021-0.078,0.033-0.117c0.151-0.513,0.285-1.032,0.405-1.559
	c0.023-0.099,0.047-0.196,0.068-0.296c0.122-0.564,0.229-1.134,0.315-1.711c0.008-0.053,0.014-0.106,0.021-0.16
	c0.072-0.513,0.129-1.03,0.172-1.553c0.012-0.146,0.022-0.292,0.033-0.439c0.036-0.576,0.063-1.156,0.063-1.743v-54.598
	c0-14.478-11.678-26.21-26.081-26.21h-2.438c0.052-0.754,0.13-3.959-2.041-6.385c-1.602-1.788-3.971-2.694-7.043-2.694h-45.755
	c-0.596,0-6.122-1.646-6.122-7.123c0-5.321,4.37-7.703,8.702-7.703h90.708c0.549,0.029,3.988,0.113,6.513-2.222
	c1.733-1.604,2.612-3.911,2.612-6.858C459.079,571.31,458.282,568.899,456.711,567.343z M394.788,558.889L394.788,558.889
	L394.788,558.889L394.788,558.889z"/>
<g>
	<path fill="#FFFFFF" d="M430.025,678.299c0,14.477-11.678,26.21-26.081,26.21h-7.891c-14.404,0-26.08-11.733-26.08-26.21v-54.598
		c0-14.478,11.676-26.21,26.08-26.21h7.891c14.403,0,26.081,11.732,26.081,26.21V678.299z"/>
	<path fill="#E8E7E8" d="M430.025,623.701c0-14.478-11.678-26.21-26.081-26.21h-7.891c-10.866,0-20.176,6.679-24.097,16.174
		c7.196-5.921,17.65-8.36,25.042-4.665c30.427,14.752,25.148,53.306,28.844,83.527c2.643-4.1,4.183-8.981,4.183-14.229V623.701z"/>
	<path fill="none" stroke="#FFFFFF" stroke-width="3" stroke-linecap="round" stroke-miterlimit="10" d="M400,597.491
		c0,0,0.842-7.579-7.579-7.579c-8.422,0-44.212,0-45.755,0c-1.541,0-7.622-2.334-7.622-8.623s5.116-9.203,10.202-9.203
		s90.754,0,90.754,0s7.579,0.593,7.579-7.58s-5.507-7.71-7.71-7.71s-43.621,0-46.558,0s-6.887-1.645-6.887-6.887s0-20.242,0-20.242"
		/>
	<g>
		
			<rect x="371.015" y="518.224" transform="matrix(-5.785663e-004 -1 1 -5.785663e-004 -139.2127 912.152)" fill="#FFFFFF" width="30.381" height="14.837"/>
		<g>
			<path fill="#E8E7E8" stroke="#FFFFFF" stroke-miterlimit="10" d="M395.844,521.838l0.018,22.389
				c0.003,2.561-3.616,4.658-8.042,4.66l-3.019,0.002c-4.423,0.004-8.046-2.089-8.046-4.646l-0.019-22.391L395.844,521.838z"/>
		</g>
		<g>
			<circle fill="#6CA3B8" cx="389.209" cy="513.901" r="1.531"/>
			<circle fill="#6CA3B8" cx="382.712" cy="513.906" r="1.531"/>
		</g>
	</g>
	<circle fill="#E8E7E8" stroke="#FFFFFF" stroke-miterlimit="10" cx="399.283" cy="683.5" r="6"/>
</g>
<g opacity="0.2">
	<path d="M179.753,365.357c-0.02-5.536-4.526-10.03-10.063-10.01l-2.497,0.007c-2.472,0.009-5.442-2.104-6.249-4.445l-0.185-0.508
		c-1.673-4.852-7.005-8.651-12.132-8.634l-13.593,0.046c-5.137,0.017-10.433,3.852-12.084,8.698l-0.183,0.548
		c-0.795,2.325-3.749,4.458-6.219,4.466l-14.749,0.05l-0.015-4.058c-0.007-1.894-1.563-3.437-3.459-3.43l-17.438,0.057
		c-1.896,0.008-3.445,1.562-3.438,3.455l0.013,4.057l-4.221,0.015c-0.334,0.001-0.665,0.02-0.991,0.054
		c-0.122,0.012-0.24,0.036-0.36,0.052c-0.198,0.028-0.396,0.053-0.59,0.092c-0.167,0.034-0.33,0.079-0.494,0.121
		c-0.138,0.035-0.277,0.066-0.413,0.107c-0.198,0.06-0.39,0.13-0.583,0.201c-0.092,0.034-0.185,0.065-0.274,0.102
		c-0.222,0.088-0.436,0.188-0.647,0.292c-0.055,0.026-0.109,0.052-0.164,0.079c-0.233,0.12-0.461,0.249-0.685,0.386
		c-0.026,0.016-0.054,0.032-0.079,0.048c-0.24,0.15-0.472,0.31-0.697,0.479c-0.007,0.005-0.014,0.01-0.02,0.015
		c-2.442,1.842-4.023,4.762-4.014,8.049l0.19,56.225c0.017,5.538,4.529,10.018,10.077,9.999l96.446-0.325
		c5.538-0.018,10.016-4.525,9.997-10.065L179.753,365.357z"/>
	<path fill="#FFFFFF" d="M179.753,365.357c-0.027-0.995-0.168-1.984-0.457-2.936c-0.311-0.944-0.745-1.844-1.296-2.671
		c-1.133-1.631-2.736-2.931-4.584-3.659c-0.918-0.38-1.901-0.571-2.884-0.667c-0.987-0.068-1.985-0.019-2.979-0.026
		c-0.992,0.001-2.011-0.163-2.905-0.634c-0.902-0.425-1.74-1.008-2.418-1.747c-0.369-0.344-0.633-0.775-0.924-1.184
		c-0.22-0.452-0.444-0.907-0.6-1.376c-0.34-0.936-0.787-1.814-1.332-2.641c-1.115-1.636-2.597-3.005-4.28-4.04
		c-0.851-0.503-1.746-0.926-2.676-1.258c-0.938-0.308-1.905-0.518-2.886-0.609c-1.97-0.071-3.973,0-5.956-0.006l-5.966,0.035
		c-1.985,0.032-3.993-0.111-5.865,0.55c-0.941,0.282-1.846,0.686-2.694,1.18c-0.857,0.481-1.657,1.064-2.386,1.721
		c-0.74,0.646-1.401,1.382-1.971,2.18c-0.581,0.79-1.059,1.655-1.404,2.569c-0.089,0.229-0.182,0.451-0.253,0.69
		c-0.045,0.125-0.063,0.221-0.131,0.37l-0.155,0.339c-0.168,0.461-0.505,0.882-0.793,1.313c-0.669,0.77-1.438,1.451-2.328,1.953
		c-0.896,0.469-1.86,0.885-2.91,0.908c-1.006,0.039-1.992,0.021-2.989,0.034l-11.93,0.071l-0.242,0.001l-0.001-0.243l-0.014-2.272
		c-0.026-0.745,0.038-1.543-0.063-2.244c-0.11-0.696-0.437-1.32-0.942-1.821c-0.503-0.494-1.185-0.781-1.873-0.852
		c-0.697-0.067-1.498-0.011-2.242-0.022l-2.272,0.013l-4.544,0.026l-4.544,0.026l-2.271,0.013c-0.742,0.021-1.548-0.027-2.238,0.049
		c-0.193,0.015-0.38,0.038-0.521,0.103c-0.152,0.064-0.314,0.074-0.463,0.173c-0.148,0.087-0.305,0.162-0.448,0.254l-0.396,0.331
		c-0.488,0.487-0.81,1.128-0.905,1.805c-0.046,0.327-0.048,0.704-0.04,1.088l0.008,1.136l0.013,2.272l0.002,0.322l-0.336,0.014
		c-2.695,0.109-5.517-0.31-7.891,0.783c-1.218,0.512-2.293,1.269-3.226,2.222c-0.886,0.918-1.645,2.041-2.092,3.264
		c-0.469,1.229-0.641,2.519-0.636,3.85l0.023,4.068l0.048,8.138l0.192,32.548l0.007,8.138l0.001,2.035l0.004,0.993
		c0.021,0.336,0.028,0.683,0.06,1.01c0.136,1.242,0.547,2.528,1.188,3.642c1.276,2.255,3.503,3.951,6.025,4.566
		c1.257,0.333,2.562,0.296,3.938,0.293l4.068-0.003l32.55-0.026l32.55-0.025l16.275-0.015l8.137-0.007
		c1.364,0.021,2.704-0.004,3.981-0.393c1.28-0.367,2.483-1,3.517-1.846c2.072-1.688,3.4-4.25,3.577-6.92
		c0.071-2.688,0.016-5.419,0.03-8.126l-0.014-16.275L179.753,365.357z M179.753,365.357l0.192,32.549l0.098,16.273
		c-0.001,2.717,0.068,5.416,0.011,8.147c-0.168,2.749-1.523,5.4-3.656,7.156c-1.063,0.879-2.305,1.541-3.63,1.928
		c-1.329,0.412-2.738,0.439-4.079,0.428l-8.137,0.049l-16.275,0.097l-32.549,0.192l-32.549,0.193l-4.069,0.022
		c-1.328,0.01-2.768,0.062-4.148-0.298c-2.757-0.656-5.201-2.496-6.612-4.96c-0.711-1.236-1.164-2.581-1.328-4.036
		c-0.034-0.347-0.042-0.68-0.063-1.02l-0.012-1.041l-0.012-2.034l-0.048-8.138l-0.028-32.55l-0.007-8.137l-0.003-4.069
		c-0.001-1.379,0.194-2.813,0.707-4.123c0.5-1.324,1.292-2.501,2.29-3.523c0.965-0.979,2.151-1.81,3.441-2.342
		c1.271-0.553,2.761-0.806,4.108-0.798l4.068-0.004l-0.333,0.336l-0.001-2.272v-1.136c-0.005-0.374-0.006-0.754,0.052-1.18
		c0.12-0.819,0.514-1.591,1.104-2.171l0.478-0.395c0.173-0.111,0.36-0.203,0.54-0.303c0.368-0.162,0.837-0.319,1.188-0.328
		c0.816-0.079,1.53-0.023,2.302-0.041l2.271-0.001l4.544-0.003l4.544-0.003l2.272-0.001c0.77,0.017,1.488-0.04,2.299,0.037
		c0.806,0.086,1.596,0.43,2.177,1.005c0.578,0.559,0.977,1.345,1.09,2.143c0.102,0.804,0.029,1.528,0.053,2.295l0.003,2.272
		l-0.243-0.242l11.93-0.01c0.991-0.008,1.996,0.015,2.976-0.019c0.958-0.013,1.879-0.401,2.73-0.842
		c0.852-0.473,1.588-1.123,2.229-1.848c0.261-0.396,0.569-0.748,0.75-1.228l0.157-0.339c0.039-0.076,0.078-0.224,0.117-0.333
		c0.073-0.235,0.171-0.474,0.265-0.708c0.362-0.943,0.86-1.832,1.461-2.64c0.59-0.816,1.271-1.567,2.03-2.225
		c0.75-0.669,1.571-1.26,2.45-1.748c0.871-0.501,1.798-0.909,2.764-1.193c1.929-0.667,3.986-0.511,5.953-0.533l5.966-0.005
		c1.991,0.017,3.968-0.046,5.973,0.037c1,0.098,1.983,0.317,2.934,0.634c0.942,0.341,1.849,0.774,2.707,1.289
		c1.7,1.057,3.19,2.449,4.312,4.11c0.546,0.837,1,1.742,1.334,2.679c0.155,0.476,0.372,0.916,0.583,1.357
		c0.283,0.402,0.539,0.826,0.9,1.167c0.663,0.73,1.487,1.31,2.375,1.733c0.875,0.468,1.872,0.634,2.859,0.639
		c0.995,0.012,1.986-0.032,2.985,0.041c0.99,0.101,1.979,0.299,2.899,0.686c1.855,0.741,3.458,2.056,4.587,3.698
		c0.549,0.833,0.979,1.736,1.285,2.684C179.595,363.372,179.731,364.363,179.753,365.357z"/>
</g>
<g>
	<g>
		<path fill="#E8E7E8" stroke="#666666" stroke-miterlimit="10" d="M91.802,346.224c0.006,1.904-1.541,3.451-3.437,3.458
			l-17.438,0.057c-1.896,0.006-3.455-1.529-3.461-3.434l-0.016-4.706c-0.008-1.893,1.542-3.447,3.438-3.455l17.438-0.057
			c1.896-0.007,3.452,1.536,3.459,3.43L91.802,346.224z"/>
		<path fill="#666666" stroke="#E8E7E8" stroke-width="1.0293" stroke-miterlimit="10" d="M159.69,345.347l-2.497,0.007
			c-2.472,0.009-5.442-2.104-6.249-4.445l-0.185-0.508c-1.673-4.852-7.005-8.651-12.132-8.634l-13.593,0.046
			c-5.137,0.017-10.433,3.852-12.084,8.698l-0.183,0.548c-0.795,2.325-3.749,4.458-6.219,4.466l-43.307,0.146
			c-5.549,0.019-10.028,4.54-10.011,10.078l0.19,56.226c0.017,5.537,4.529,10.017,10.077,9.998l96.446-0.324
			c5.538-0.019,10.016-4.526,9.997-10.066l-0.189-56.225C169.735,349.821,165.228,345.327,159.69,345.347z"/>
		<path fill="#FFFFFF" d="M134.682,382.672c0.043,12.748-10.264,23.133-23.012,23.176c-12.763,0.043-23.146-10.273-23.188-23.021
			c-0.042-12.766,10.271-23.144,23.033-23.186C124.263,359.598,134.64,369.907,134.682,382.672z"/>
		<path fill="#FFFFFF" stroke="#E8E7E8" stroke-miterlimit="10" d="M111.685,409.947c-15.006,0.05-27.258-12.107-27.309-27.107
			c-0.05-15.018,12.119-27.253,27.124-27.304c15.002-0.051,27.248,12.103,27.298,27.12
			C138.849,397.656,126.684,409.896,111.685,409.947L111.685,409.947z"/>
		<path fill="#306972" d="M111.665,404.35c-11.918,0.039-21.645-9.621-21.685-21.526c-0.039-11.921,9.62-21.648,21.538-21.688
			c11.901-0.041,21.633,9.621,21.673,21.542C133.232,394.582,123.566,404.309,111.665,404.35L111.665,404.35z"/>
		<path fill="#A7EAEF" d="M131.787,382.681c0.039,11.149-8.975,20.226-20.127,20.262c-11.163,0.037-20.247-8.977-20.284-20.126
			c-0.038-11.167,8.984-20.253,20.148-20.291C122.676,362.488,131.75,371.513,131.787,382.681z"/>
		<path fill="#A7EAEF" d="M124.675,350.901c-2.466,0.006-4.483-2.325-4.494-5.201l-0.007-2.28c-0.01-2.881,1.993-5.219,4.459-5.228
			l14.563-0.049c2.473-0.009,4.486,2.318,4.495,5.197l0.007,2.28c0.01,2.875-1.988,5.222-4.459,5.23L124.675,350.901z"/>
		<path opacity="0.25" fill="#E8E7E8" enable-background="new    " d="M169.931,408.087l-0.178-52.73
			c-0.02-5.536-4.526-10.03-10.063-10.01l-2.497,0.007c-2.472,0.009-5.442-2.104-6.249-4.445l-0.185-0.508
			c-1.673-4.852-7.005-8.651-12.132-8.634l-13.593,0.046c-5.137,0.017-10.433,3.852-12.084,8.698l-0.183,0.548
			c-0.795,2.325-3.749,4.458-6.219,4.466l-14.749,0.05l-0.015-4.058c-0.007-1.894-1.563-3.437-3.459-3.43l-17.438,0.057
			c-1.896,0.008-3.445,1.562-3.438,3.455l0.013,4.057l-4.221,0.015c-2.57,0.007-4.906,0.993-6.679,2.59L169.931,408.087z"/>
	</g>
	<g>
		<path fill="#FFFFFF" d="M96.752,376.87c0,0-0.119,0.591-0.229,1.633c-0.12,1.04-0.199,2.538-0.1,4.316
			c0.093,1.773,0.425,3.845,1.245,5.879c0.399,1.019,0.925,2.023,1.585,2.954c0.656,0.94,1.425,1.784,2.336,2.552
			c0.885,0.754,1.822,1.445,2.824,2.012c0.998,0.563,2.036,1.016,3.078,1.349c2.088,0.65,4.163,0.857,5.934,0.762
			c1.77-0.101,3.245-0.367,4.253-0.646c1.011-0.27,1.572-0.492,1.572-0.492s-0.521,0.31-1.51,0.685
			c-0.99,0.361-2.444,0.848-4.27,1.032c-1.812,0.191-4.006,0.172-6.238-0.479c-2.238-0.615-4.445-1.849-6.306-3.487
			c-0.917-0.789-1.779-1.735-2.458-2.746c-0.68-1.018-1.209-2.104-1.602-3.192c-0.774-2.188-0.979-4.349-0.983-6.166
			c0.005-1.825,0.257-3.325,0.458-4.359C96.555,377.44,96.752,376.87,96.752,376.87z"/>
	</g>
	<circle fill="#FFFFFF" cx="98.667" cy="373.334" r="1"/>
	<g>
		<path fill="#FFFFFF" d="M122.833,343.913c0,0,0.065,0.696,0.271,1.655c0.111,0.476,0.268,1.021,0.536,1.503
			c0.122,0.251,0.313,0.445,0.491,0.635c0.199,0.158,0.425,0.305,0.671,0.359c0.317,0.082,0.663,0.227,0.942,0.236
			c0.293,0.031,0.569,0.111,0.882,0.115c0.602,0.058,1.18,0.067,1.679,0.077c1.016,0.003,1.694,0.006,1.694,0.006
			s-0.616,0.331-1.629,0.564c-0.505,0.121-1.107,0.223-1.771,0.233c-0.322,0.022-0.691-0.004-1.058-0.051
			c-0.39-0.025-0.677-0.143-1.015-0.22c-0.41-0.114-0.759-0.351-1.062-0.621c-0.278-0.291-0.488-0.624-0.618-0.955
			c-0.15-0.327-0.211-0.659-0.261-0.966c-0.051-0.307-0.057-0.598-0.052-0.862C122.563,344.563,122.833,343.913,122.833,343.913z"/>
	</g>
</g>
<path opacity="0.2" enable-background="new    " d="M677.117,379.064l5.283,14.712l76.214-27.29l-46.289-34.234l29.306-38.962
	l-14.582-10.967l-29.394,39.079l-56.161-41.535l28.244,78.651L645.88,390.24l14.582,10.969L677.117,379.064z M728.15,359.927
	l-39.804,14.254l-2.438-6.806l18.231-24.24L728.15,359.927z M689.18,332.672l-10.635,14.14l-10.312-28.789L689.18,332.672z"/>
<g>
	<path fill="#FC611F" d="M631.494,269.867l40.906,113.91l76.214-27.29L631.494,269.867z M658.234,308.023l59.916,41.904
		l-39.804,14.254L658.234,308.023z"/>
	<g>
		<g>
			<path id="SVGID_1_" fill="#FFAD00" d="M631.494,269.867l40.906,113.91l76.214-27.29L631.494,269.867z M658.234,308.023
				l59.916,41.904l-39.804,14.254L658.234,308.023z"/>
		</g>
		<g>
			<defs>
				<path id="SVGID_2_" d="M631.494,269.867l40.906,113.91l76.214-27.29L631.494,269.867z M658.234,308.023l59.916,41.904
					l-39.804,14.254L658.234,308.023z"/>
			</defs>
			<clipPath id="SVGID_3_">
				<use xlink:href="#SVGID_2_"  overflow="visible"/>
			</clipPath>
			<g clip-path="url(#SVGID_3_)">
				<line fill="none" x1="624.772" y1="274.07" x2="638.258" y2="269.184"/>
				<line fill="none" x1="626.592" y1="279.092" x2="640.076" y2="274.206"/>
				<line fill="none" x1="628.412" y1="284.118" x2="641.898" y2="279.229"/>
				<line fill="none" x1="630.233" y1="289.14" x2="643.719" y2="284.253"/>
				<line fill="none" x1="632.054" y1="294.163" x2="645.537" y2="289.276"/>
				<line fill="none" x1="633.873" y1="299.186" x2="647.358" y2="294.3"/>
				<line fill="none" x1="635.695" y1="304.21" x2="649.179" y2="299.324"/>
				<line fill="none" x1="637.517" y1="309.231" x2="651" y2="304.346"/>
				<line fill="none" x1="639.334" y1="314.258" x2="652.82" y2="309.371"/>
				<line fill="none" x1="641.156" y1="319.281" x2="654.64" y2="314.393"/>
				<line fill="none" x1="642.977" y1="324.303" x2="656.461" y2="319.416"/>
				<line fill="none" x1="644.798" y1="329.326" x2="658.281" y2="324.439"/>
				<line fill="none" x1="646.618" y1="334.349" x2="660.101" y2="329.463"/>
				<line fill="none" x1="648.438" y1="339.372" x2="661.922" y2="334.486"/>
				<line fill="none" x1="650.259" y1="344.396" x2="663.742" y2="339.508"/>
				<line fill="none" x1="652.08" y1="349.42" x2="665.563" y2="344.532"/>
				<line fill="none" x1="653.899" y1="354.443" x2="667.383" y2="349.556"/>
				<line fill="none" x1="655.721" y1="359.466" x2="669.203" y2="354.577"/>
				<line fill="none" x1="657.541" y1="364.489" x2="671.024" y2="359.602"/>
				<line fill="none" x1="659.361" y1="369.512" x2="672.846" y2="364.626"/>
				<line fill="none" x1="661.182" y1="374.534" x2="674.664" y2="369.649"/>
				<line fill="none" x1="663.002" y1="379.558" x2="676.486" y2="374.671"/>
				<line fill="none" x1="664.822" y1="384.581" x2="678.307" y2="379.695"/>
				<line fill="none" x1="666.643" y1="389.604" x2="680.125" y2="384.718"/>
			</g>
		</g>
	</g>
</g>
<g>
	
		<rect x="674.675" y="264.242" transform="matrix(-0.7992 -0.6011 0.6011 -0.7992 1030.8618 1007.9222)" fill="#FF4938" width="18.247" height="135.038"/>
	<g>
		<line fill="none" x1="713.178" y1="277.671" x2="724.617" y2="286.321"/>
		<line fill="none" x1="709.955" y1="281.931" x2="721.396" y2="290.581"/>
		<line fill="none" x1="706.731" y1="286.194" x2="718.174" y2="294.844"/>
		<line fill="none" x1="703.511" y1="290.456" x2="714.95" y2="299.106"/>
		<line fill="none" x1="700.287" y1="294.717" x2="711.729" y2="303.368"/>
		<line fill="none" x1="697.065" y1="298.979" x2="708.506" y2="307.63"/>
		<line fill="none" x1="693.843" y1="303.241" x2="705.282" y2="311.892"/>
		<line fill="none" x1="690.621" y1="307.502" x2="702.062" y2="316.153"/>
		<line fill="none" x1="687.396" y1="311.764" x2="698.838" y2="320.416"/>
		<line fill="none" x1="684.175" y1="316.027" x2="695.615" y2="324.676"/>
		<line fill="none" x1="680.952" y1="320.289" x2="692.394" y2="328.938"/>
		<line fill="none" x1="677.731" y1="324.55" x2="689.172" y2="333.201"/>
		<line fill="none" x1="674.51" y1="328.813" x2="685.947" y2="337.462"/>
		<line fill="none" x1="671.286" y1="333.074" x2="682.726" y2="341.724"/>
		<line fill="none" x1="668.063" y1="337.336" x2="679.504" y2="345.985"/>
		<line fill="none" x1="664.841" y1="341.6" x2="676.281" y2="350.248"/>
		<line fill="none" x1="661.617" y1="345.86" x2="673.059" y2="354.509"/>
		<line fill="none" x1="658.396" y1="350.122" x2="669.838" y2="358.771"/>
		<line fill="none" x1="655.174" y1="354.383" x2="666.614" y2="363.033"/>
		<line fill="none" x1="651.951" y1="358.645" x2="663.391" y2="367.295"/>
		<line fill="none" x1="648.73" y1="362.906" x2="660.169" y2="371.557"/>
		<line fill="none" x1="645.508" y1="367.168" x2="656.947" y2="375.818"/>
		<line fill="none" x1="642.283" y1="371.43" x2="653.725" y2="380.08"/>
		<line fill="none" x1="639.063" y1="375.691" x2="650.502" y2="384.341"/>
	</g>
</g>
<path opacity="0.2" enable-background="new    " d="M230.892,614.174l-3.086-7.211c-0.407-0.952-1.51-1.394-2.461-0.986
	c-0.952,0.407-1.394,1.511-0.986,2.462l0.87,2.032c-0.074,0.027-0.146,0.048-0.222,0.079l-1.553,0.665
	c-2.249-5.64-5.281-13.238-8.467-21.215h9.264c0.829,0,1.5-0.672,1.5-1.5s-0.671-1.5-1.5-1.5H213.79
	c-4.725-11.824-9.604-24.024-12.646-31.572c5.319-3.429,8.856-9.393,8.856-16.178c0-9.765-7.315-17.837-16.75-19.068v-11.369
	c0-1.381-1.119-2.5-2.5-2.5s-2.5,1.119-2.5,2.5v11.369c-9.436,1.231-16.75,9.305-16.75,19.068c0,6.985,3.753,13.096,9.336,16.47
	L167.855,587H157.25c-0.829,0-1.5,0.672-1.5,1.5s0.671,1.5,1.5,1.5h9.359l-8.718,21.009l-1.072-0.459
	c-0.073-0.031-0.147-0.052-0.222-0.079l0.87-2.031c0.408-0.952-0.034-2.056-0.986-2.462c-0.952-0.407-2.054,0.033-2.461,0.985
	l-3.086,7.211c-0.407,0.952,0.034,2.056,0.986,2.462c0.952,0.407,2.055-0.033,2.462-0.985l0.752-1.759
	c0.071,0.035,0.136,0.075,0.21,0.106l1.11,0.475l-1.609,3.878l-0.185,0.447l1.627,0.796l-2.858,10.064l-0.214-0.108l-3.231,6.724
	l3.121,1.58l3.23-6.725l-0.663-0.335l6.09-8.521l2.504,1.225l2.063-4.799l0.605,0.26c0.21,0.09,0.419,0.159,0.628,0.216
	l-0.206,0.481c-0.406,0.952,0.034,2.055,0.986,2.462s2.055-0.034,2.462-0.986l3.086-7.211c0.408-0.952-0.034-2.055-0.986-2.462
	c-0.951-0.407-2.054,0.034-2.461,0.986l-1.442,3.372c-0.186-0.112-0.379-0.216-0.589-0.307l-0.602-0.257L178.664,590h10.226v9.75
	c0,1.657,1.343,3,3,3s3-1.343,3-3V590h9.108c4.023,9.626,7.893,18.861,10.487,25.053l-1.07,0.458
	c-0.21,0.09-0.405,0.193-0.589,0.307l-1.443-3.372c-0.407-0.952-1.51-1.395-2.461-0.986c-0.952,0.407-1.395,1.51-0.986,2.462
	l3.086,7.211c0.407,0.952,1.511,1.395,2.462,0.986c0.952-0.407,1.394-1.51,0.986-2.462l-0.206-0.481
	c0.208-0.057,0.418-0.126,0.628-0.216l1.044-0.447c1.084,2.587,1.731,4.129,1.766,4.209l0.161,0.386l1.663-0.323l5.257,10.027
	l-0.702,0.241l2.275,7.104l3.309-1.138l-2.277-7.103l-0.227,0.078l-1.456-10.417l1.746-0.34l-0.23-0.577
	c-0.044-0.11-0.935-2.347-2.376-5.961l1.639-0.701c0.074-0.031,0.14-0.071,0.21-0.106l0.752,1.758
	c0.407,0.952,1.511,1.395,2.463,0.986C230.857,616.229,231.299,615.126,230.892,614.174z M173.5,539.25
	c0-8.674,6.441-15.853,14.789-17.054c0.186,1.196,1.212,2.115,2.461,2.115s2.274-0.919,2.461-2.115
	c8.347,1.201,14.789,8.38,14.789,17.054c0,5.945-3.023,11.198-7.613,14.301c-0.373-0.923-0.709-1.754-1-2.47
	c3.891-2.764,6.121-7.213,5.984-11.984c-0.185-6.387-4.634-11.875-10.836-13.387c-0.308-0.234-1.205-0.808-2.646-0.808
	c-1.478,0-2.457,0.397-2.752,0.537c-7.156,1.021-12.386,7.229-12.178,14.475c0.125,4.374,2.302,8.479,5.844,11.063l-1.193,2.875
	C176.749,550.799,173.5,545.403,173.5,539.25z M194.889,587v-6.5c0-1.657-1.343-3-3-3s-3,1.343-3,3v6.5h-8.937l11.57-26.925
	c3.008,7.258,7.133,17.146,11.22,26.925H194.889z"/>
<g>
	<circle fill="none" stroke="#666666" stroke-width="2" stroke-miterlimit="10" cx="180.75" cy="529.25" r="18.25"/>
	<g>
		<polygon fill="#E8E7E8" stroke="#666666" stroke-width="0.4468" stroke-miterlimit="10" points="147.316,606.787 153.258,609.796 
			141.982,625.574 141.982,625.574 		"/>
		<g>
			<g>
				<defs>
					<polygon id="SVGID_4_" points="143.216,619.55 146.335,621.129 143.105,627.853 139.984,626.272 					"/>
				</defs>
				<clipPath id="SVGID_5_">
					<use xlink:href="#SVGID_4_"  overflow="visible"/>
				</clipPath>
				<polygon clip-path="url(#SVGID_5_)" fill="#666666" points="147.316,606.787 153.258,609.796 141.982,625.574 141.982,625.574 
									"/>
			</g>
		</g>
	</g>
	<g>
		<polygon fill="#E8E7E8" stroke="#666666" stroke-width="0.4468" stroke-miterlimit="10" points="215.077,608.711 208.778,610.875 
			217.78,628.053 217.78,628.053 		"/>
		<g>
			<g>
				<defs>
					<polygon id="SVGID_6_" points="217.386,621.916 214.079,623.051 216.355,630.155 219.663,629.019 					"/>
				</defs>
				<clipPath id="SVGID_7_">
					<use xlink:href="#SVGID_6_"  overflow="visible"/>
				</clipPath>
				<polygon clip-path="url(#SVGID_7_)" fill="#666666" points="215.077,608.711 208.778,610.875 217.78,628.053 217.78,628.053 
									"/>
			</g>
		</g>
	</g>
	<g>
		<path fill="#E8E7E8" d="M145.345,603.998c-1.53-0.654-2.441-1.958-2.034-2.91l0,0c0.407-0.952,1.979-1.192,3.509-0.538
			l11.592,4.961c1.53,0.655,2.439,1.958,2.032,2.909l0,0c-0.406,0.952-1.979,1.193-3.509,0.538L145.345,603.998z"/>
		<path fill="#E8E7E8" d="M160.806,611.131c-0.407,0.952-1.51,1.395-2.462,0.986l0,0c-0.952-0.407-1.393-1.51-0.986-2.462
			l3.086-7.211c0.407-0.952,1.511-1.395,2.461-0.986l0,0c0.952,0.407,1.395,1.51,0.986,2.462L160.806,611.131z"/>
		<path fill="#E8E7E8" d="M144.382,605.649c-0.407,0.951-1.51,1.394-2.462,0.985l0,0c-0.952-0.407-1.394-1.51-0.986-2.462
			l3.086-7.211c0.407-0.952,1.51-1.394,2.461-0.986l0,0c0.952,0.407,1.395,1.511,0.986,2.463L144.382,605.649z"/>
	</g>
	<g>
		<path fill="#E8E7E8" d="M216.481,603.998c1.53-0.654,2.441-1.958,2.034-2.91l0,0c-0.407-0.952-1.979-1.192-3.509-0.538
			l-11.591,4.961c-1.531,0.655-2.44,1.958-2.033,2.909l0,0c0.407,0.952,1.979,1.193,3.509,0.538L216.481,603.998z"/>
		<path fill="#E8E7E8" d="M201.021,611.131c0.407,0.952,1.51,1.395,2.462,0.986l0,0c0.952-0.407,1.394-1.51,0.986-2.462
			l-3.086-7.211c-0.407-0.952-1.51-1.395-2.461-0.986l0,0c-0.952,0.407-1.395,1.51-0.986,2.462L201.021,611.131z"/>
		<path fill="#E8E7E8" d="M217.444,605.649c0.407,0.951,1.511,1.394,2.462,0.985l0,0c0.952-0.407,1.394-1.51,0.986-2.462
			l-3.086-7.211c-0.407-0.952-1.51-1.394-2.461-0.986l0,0c-0.952,0.407-1.394,1.511-0.986,2.463L217.444,605.649z"/>
	</g>
	<path fill="#E8E7E8" stroke="#666666" stroke-width="1.0293" stroke-miterlimit="10" d="M188.755,540.892
		c3.791-2.531,6.242-6.889,6.102-11.779c-0.183-6.345-4.655-11.542-10.555-12.929c0,0-0.823-0.767-2.413-0.767
		c-1.639,0-2.6,0.521-2.6,0.521c-6.844,0.937-12.02,6.899-11.816,13.962c0.13,4.55,2.476,8.506,5.962,10.896l-28.115,67.752
		l8.688,4.249l27.524-64.046c8.422,20.346,26.642,63.77,26.642,63.77l8.566-1.67C216.741,610.851,194.176,554.224,188.755,540.892z"
		/>
	<g>
		<circle fill="#666666" cx="180.75" cy="529.25" r="5.644"/>
		<path fill="none" stroke="#666666" stroke-width="0.7496" stroke-miterlimit="10" d="M180.75,536.35
			c-3.915,0-7.101-3.185-7.101-7.1s3.186-7.1,7.101-7.1s7.1,3.185,7.1,7.1S184.665,536.35,180.75,536.35z"/>
	</g>
	<g>
		<circle fill="#E8E7E8" cx="180.75" cy="529.25" r="2.977"/>
	</g>
	
		<line fill="none" stroke="#666666" stroke-width="5" stroke-linecap="round" stroke-linejoin="round" stroke-miterlimit="10" x1="180.75" y1="511.813" x2="180.75" y2="498.813"/>
	
		<line fill="none" stroke="#666666" stroke-width="3" stroke-linecap="round" stroke-linejoin="round" stroke-miterlimit="10" x1="147.25" y1="578.5" x2="214.25" y2="578.5"/>
	
		<line fill="none" stroke="#666666" stroke-width="6" stroke-linecap="round" stroke-linejoin="round" stroke-miterlimit="10" x1="181.889" y1="570.5" x2="181.889" y2="589.75"/>
</g>
<g>
	<g opacity="0.2">
		<path d="M222.434,167.758c-9.952,3.457-16.55,5.483-36.967,5.483c-20.416,0-31.744-3.585-36.966-5.483
			c0,4.239,11.827,64.051,11.827,67.474c0,3.981,12.43,5.788,24.524,6.391c12.098,0.604,25.753-2.41,25.753-6.391
			C210.606,231.81,222.434,171.997,222.434,167.758z"/>
	</g>
	<g>
		<path fill="#9B999F" d="M178.872,144.526c0,0-1.444,34.624-1.582,37.51c-0.139,2.887-0.157,4.567-2.724,4.823l-8.206-41.311
			C166.36,145.547,178.487,130.751,178.872,144.526z"/>
		<path fill="#C9C9C9" d="M166.077,145.727c0,0,3.357,34.137,3.655,36.979c0.296,2.842,0.408,4.51,2.977,4.244l5.865-42.74
			C178.574,144.21,165.694,131.952,166.077,145.727z"/>
		<g>
			<path fill="#00652E" d="M169.334,123.129c-0.691,2.051-5.375,3.771-8.148,1.152c-2.771-2.617-6.175-8.567-4.521-13.583
				c1.654-5.015,4.63-8.778,8.094-8.481c3.464,0.297,4.519,1.563,4.749,4.917C169.738,110.488,170.161,120.682,169.334,123.129z
				 M173.054,108.149c0.196-5.178-0.611-7.66-6.019-9.175c-5.408-1.517-12.828,2.961-14.598,12.189
				c-1.77,9.229,4.853,14.286,8.021,17.004c3.17,2.716,5.497,6.079,6.438,9.154c0.941,3.075,0.936,3.677,1.934,1.34
				c1-2.336,4.603-0.963,4.603-0.963S172.859,113.328,173.054,108.149z"/>
		</g>
		<g>
			<path fill="#00652E" d="M185.697,124.228c-2.831,2.914-7.482,1.688-8.132-0.29c-0.774-2.362-0.13-12.614,0.173-15.995
				c0.305-3.381,1.388-4.762,4.861-5.426c3.474-0.665,6.37,2.789,7.919,7.635C192.065,114.997,188.529,121.314,185.697,124.228z
				 M194.739,110.168c-1.569-9.051-8.9-12.75-14.348-10.659c-5.446,2.092-6.309,4.66-6.225,9.824
				c0.076,4.775-0.692,24.292-0.867,27.205c-0.009,0.001-0.018,0.002-0.026,0.002c-0.089,0.001-0.175-0.004-0.264,0.002
				c-3.509,0.185-6.769,3.112-6.805,6.512c-0.036,3.402,2.777,6.007,6.285,5.822c3.289-0.174,6.021-2.74,6.38-5.863
				c0.023-0.208,0.031-0.851,0.025-0.961c0.092-0.982,0.198-1.989,0.271-2.479c0.145-0.443,0.313-1.001,0.53-1.688
				c1.009-3.179,3.411-6.791,6.644-9.846C189.573,124.985,196.311,119.22,194.739,110.168z"/>
		</g>
		<g>
			<g>
				<path fill="#FFCF39" d="M176.632,143.625c-0.021,1.939-1.805,3.606-3.984,3.721c-2.178,0.115-3.927-1.363-3.905-3.303
					c0.021-1.941,1.804-3.607,3.981-3.723C174.902,140.205,176.652,141.684,176.632,143.625z"/>
			</g>
		</g>
	</g>
	<path fill="#FFE100" d="M206.027,139.032l7.411,5.115l-0.794,1.146l-7.425-5.114l-1.824,2.651l3.896,2.707l-0.792,1.155
		l-3.909-2.696l-1.835,2.65l3.907,2.703l-0.793,1.15l-3.909-2.689l-1.838,2.657l3.909,2.693l-0.792,1.156l-3.907-2.696l-1.838,2.659
		l7.412,5.12l-0.794,1.155l-7.413-5.123l-1.835,2.66l3.907,2.697l-0.805,1.144l-3.896-2.684l-1.837,2.651l3.898,2.707l-0.794,1.143
		l-3.907-2.684l-1.824,2.651l3.896,2.683l-0.792,1.17l-3.909-2.708l-1.836,2.674l7.424,5.112l-0.807,1.146l-7.412-5.114
		l-1.836,2.652l3.91,2.708l-0.794,1.154l-3.908-2.696l-1.836,2.653l3.908,2.702l-0.807,1.147l-3.896-2.688l-1.837,2.656l3.909,2.696
		l-0.805,1.156l-3.896-2.697l-1.836,2.657l7.412,5.118l-0.792,1.156l-7.425-5.125l-1.826,2.663l3.898,2.698l-0.793,1.142
		l-3.909-2.684l-1.838,2.652l3.91,2.709l-0.793,1.141l-3.909-2.683l-1.838,2.649l3.91,2.685l-0.793,1.168l-3.91-2.707l-1.836,2.676
		l7.409,5.112l-0.792,1.143l-7.412-5.113l-3.662,5.313l10.703,7.387l55.367-80.215l-10.705-7.389L206.027,139.032z M217.819,136.467
		c-0.794,1.141-2.381,1.436-3.536,0.644c-1.154-0.795-1.45-2.369-0.645-3.538c0.793-1.141,2.382-1.434,3.534-0.641
		C218.316,133.725,218.611,135.325,217.819,136.467z"/>
	<path fill="#DE0209" d="M132.621,127.373l13.305,34.606c-0.504,0.655-0.673,1.513-0.35,2.343l5.426,14.084
		c0.399,1.063,1.471,1.682,2.549,1.543l2.194,5.706c1.618,4.222,6.335,6.303,10.529,4.687c4.186-1.586,6.28-6.323,4.678-10.525
		l-1.4-3.62l-10.918,1.792l10.108-3.877c0.891-0.632,1.291-1.79,0.877-2.851l-5.429-14.106c-0.307-0.812-1.021-1.353-1.826-1.504
		l-13.307-34.606l-12.727-8.559L132.621,127.373z M152.217,160.703c-0.589,0.568-0.825,1.465-0.504,2.294l4.733,12.305
		c0.309,0.826,1.087,1.341,1.911,1.362l-3.922,1.5c-1.071,0.411-2.266-0.13-2.684-1.19l-4.645-12.087
		c-0.418-1.069,0.118-2.271,1.188-2.682L152.217,160.703z M148.118,121.797l0.279,0.729c0.519,1.357-0.156,2.85-1.481,3.368
		c-1.16,0.438-2.437,0.005-3.091-0.972c0.177,1.161-0.488,2.327-1.632,2.787c-1.158,0.46-2.435,0.004-3.09-0.972
		c0.163,1.162-0.487,2.329-1.646,2.788c-1.325,0.519-2.832-0.156-3.341-1.485l-0.292-0.728l2.146-8.597l4.803-1.85L148.118,121.797z
		"/>
	<path fill="#5B5B5F" d="M199.141,224.279l0.214-7.382c0.888-0.363,1.508-1.225,1.538-2.238l2.134-76.577
		c0.9-0.518,1.708-1.292,2.271-2.269l6.875-12.266c1.647-2.913,0.603-6.595-2.299-8.224l-0.014-0.006l5.599-9.98
		c0.725-1.275,0.264-2.867-0.989-3.575c-1.275-0.698-2.861-0.257-3.57,0.993l-5.62,9.991l-0.013-0.009
		c-2.899-1.626-6.592-0.594-8.218,2.307l-6.897,12.277c-0.559,0.991-0.783,2.057-0.753,3.105l-36.624,23.728
		c-1.114-0.314-2.38-0.153-3.42,0.528l-17.692,11.448c-1.054,0.688-1.708,1.77-1.873,2.923l-4.68,3.038
		c-0.847,0.543-1.241,1.529-1.121,2.472l-6.197,4.012c-0.443,0.292-0.55,0.873-0.269,1.326c0.275,0.445,0.879,0.566,1.309,0.28
		l6.139-3.976c0.828,0.6,1.965,0.685,2.86,0.11l4.334-2.803c1.285,0.592,2.817,0.541,4.098-0.284l17.69-11.451
		c1.283-0.827,1.953-2.222,1.927-3.634l35.75-23.17c0.265,0.2,0.54,0.393,0.84,0.562l4.604,2.586
		c0.296,0.167,0.598,0.292,0.906,0.418l-2.104,75.974c-0.042,0.972,0.483,1.817,1.279,2.261c0.085,0.056,0.18,0.105,0.288,0.143
		l-0.223,7.315c-0.013,0.511,0.404,0.95,0.942,0.968C198.682,225.21,199.121,224.793,199.141,224.279z M199.62,128.161
		c-1.567-0.859-2.112-2.827-1.226-4.375c0.879-1.557,2.827-2.112,4.376-1.224c1.556,0.867,2.113,2.829,1.224,4.375
		C203.144,128.485,201.167,129.05,199.62,128.161z"/>
</g>
<g>
	<path fill="#90BCE2" d="M215.485,160.752c0-4.72-16.55-8.547-36.967-8.547c-20.416,0-36.966,3.827-36.966,8.547
		c0,4.238,11.828,64.051,11.828,67.474c0,3.981,12.43,5.788,24.524,6.391c12.098,0.604,25.754-2.41,25.754-6.391
		C203.659,224.803,215.485,164.991,215.485,160.752z"/>
</g>
</svg>
